<?xml version="1.0" encoding="utf-8"?>
<!-- Generator: Adobe Illustrator 16.0.0, SVG Export Plug-In . SVG Version: 6.00 Build 0)  -->
<!DOCTYPE svg PUBLIC "-//W3C//DTD SVG 1.1//EN" "http://www.w3.org/Graphics/SVG/1.1/DTD/svg11.dtd">
<svg version="1.1" id="Layer_1" xmlns="http://www.w3.org/2000/svg" xmlns:xlink="http://www.w3.org/1999/xlink" x="0px" y="0px"
	 width="95.667px" height="95.667px" viewBox="0 0 95.667 95.667" enable-background="new 0 0 95.667 95.667" xml:space="preserve">
<circle fill="#FFFFFF" cx="47.666" cy="48.791" r="42.213"/>
<g>
	<path fill-rule="evenodd" clip-rule="evenodd" fill="none" stroke="#E52200" stroke-width="1.5" stroke-miterlimit="10" d="
		M53.45,66.798c0,0.843-0.104,1.654,0.036,2.419c0.096,0.512,0.462,1.033,0.837,1.426c0.993,1.041,2.29,1.594,3.625,2.06
		c0.692,0.241,1.011,0.866,0.767,1.511c-0.17,0.448-0.51,0.696-0.991,0.718c-0.304,0.014-0.608,0.006-0.913,0.006
		c-6.326,0-12.652,0.001-18.98-0.001c-0.857,0-1.333-0.436-1.314-1.197c0.014-0.528,0.252-0.8,0.781-1.02
		c0.813-0.337,1.634-0.668,2.404-1.087c0.514-0.279,0.977-0.675,1.406-1.078c0.571-0.537,0.859-1.216,0.822-2.025
		c-0.025-0.547-0.005-1.096-0.005-1.695c-0.226-0.013-0.419-0.035-0.614-0.035c-5.326-0.001-10.655,0.002-15.982-0.005
		c-0.463-0.001-0.93-0.02-1.383-0.097c-1.688-0.287-2.549-1.173-2.794-2.855c-0.062-0.414-0.089-0.836-0.089-1.254
		c-0.006-10.555-0.009-21.109,0.004-31.664c0.001-0.617,0.081-1.245,0.22-1.846c0.281-1.213,1.085-1.971,2.29-2.23
		c0.658-0.142,1.348-0.198,2.023-0.198c11.293-0.012,22.586-0.008,33.879-0.008c3.488,0,6.978-0.001,10.467,0.001
		c0.361,0,0.727-0.006,1.084,0.039c2.066,0.256,3.115,1.401,3.236,3.516c0.014,0.231,0.01,0.463,0.01,0.695
		c0.002,10.482,0.002,20.964-0.002,31.446c0,0.462-0.021,0.927-0.073,1.385c-0.209,1.818-1.291,2.868-3.116,3.036
		c-0.346,0.032-0.693,0.038-1.041,0.038c-5.342,0.001-10.686,0.001-16.027,0.001C53.831,66.798,53.645,66.798,53.45,66.798z
		 M47.753,31.335c-6.947,0-13.896,0-20.845,0.001c-0.376,0-0.751,0.024-1.126,0.046c-0.456,0.027-0.672,0.289-0.689,0.733
		c-0.01,0.26-0.027,0.52-0.027,0.78c-0.001,8.352-0.002,16.705,0,25.057c0,0.231,0.02,0.462,0.031,0.693
		c0.02,0.441,0.266,0.654,0.692,0.671c0.347,0.013,0.694,0.02,1.04,0.02c9.598,0.007,19.195,0.011,28.793,0.019
		c4.4,0.004,8.799,0.015,13.201,0.018c1.143,0,1.482-0.316,1.482-1.372c-0.003-8.482-0.009-16.965-0.016-25.448
		c0-0.201-0.024-0.403-0.048-0.604c-0.04-0.332-0.228-0.53-0.563-0.558c-0.357-0.029-0.721-0.056-1.08-0.056
		C61.65,31.335,54.702,31.335,47.753,31.335z"/>
	<g>
		<path fill-rule="evenodd" clip-rule="evenodd" fill="none" stroke="#E52200" stroke-width="1.5" stroke-miterlimit="10" d="
			M55.246,44.829c0.003-0.135-0.049-0.185-0.178-0.214c-0.348-0.074-0.683-0.19-1.031-0.241c-0.355-0.054-0.555-0.194-0.607-0.577
			c-0.027-0.196-0.006-0.307,0.131-0.445c0.34-0.352,0.658-0.726,1.004-1.112c-0.189-0.328-0.428-0.73-0.656-1.138
			c-0.064-0.119-0.135-0.144-0.256-0.104c-0.316,0.1-0.648,0.164-0.949,0.293c-0.379,0.16-0.658,0.115-0.904-0.225
			c-0.082-0.111-0.122-0.186-0.082-0.32c0.151-0.48,0.29-0.965,0.434-1.45c-0.047-0.033-0.081-0.058-0.119-0.079
			c-0.385-0.224-0.771-0.451-1.163-0.667c-0.044-0.023-0.15,0-0.191,0.041c-0.224,0.216-0.462,0.423-0.642,0.671
			c-0.279,0.375-0.589,0.5-1.021,0.295c-0.106-0.049-0.178-0.084-0.207-0.21c-0.111-0.49-0.237-0.977-0.361-1.482
			c-0.507,0-1.004-0.004-1.5,0.005C46.9,37.87,46.833,37.947,46.819,38c-0.082,0.299-0.182,0.597-0.218,0.902
			c-0.055,0.458-0.26,0.72-0.736,0.765c-0.121,0.011-0.199,0.013-0.283-0.078c-0.311-0.333-0.625-0.661-0.947-0.981
			c-0.047-0.045-0.163-0.085-0.208-0.062c-0.43,0.236-0.85,0.487-1.285,0.739c0.108,0.374,0.185,0.752,0.331,1.101
			c0.162,0.386,0.119,0.669-0.223,0.92c-0.104,0.076-0.169,0.124-0.302,0.082c-0.432-0.14-0.869-0.258-1.304-0.391
			c-0.121-0.038-0.192-0.022-0.26,0.099c-0.227,0.412-0.465,0.813-0.674,1.169c0.283,0.311,0.509,0.633,0.806,0.867
			c0.358,0.28,0.447,0.576,0.255,0.969c-0.035,0.071-0.105,0.153-0.176,0.172c-0.453,0.124-0.908,0.234-1.365,0.338
			c-0.125,0.029-0.185,0.072-0.182,0.211c0.008,0.425,0.009,0.852,0,1.278c-0.003,0.13,0.051,0.174,0.166,0.202
			c0.35,0.08,0.696,0.199,1.051,0.246c0.383,0.049,0.58,0.217,0.633,0.606c0.021,0.157,0,0.242-0.105,0.353
			c-0.356,0.377-0.695,0.77-1.064,1.179c0.186,0.323,0.43,0.732,0.662,1.146c0.055,0.1,0.106,0.129,0.221,0.091
			c0.387-0.121,0.782-0.207,1.16-0.348c0.302-0.113,0.52-0.091,0.723,0.179c0.091,0.119,0.145,0.199,0.094,0.356
			c-0.158,0.5-0.297,1.007-0.446,1.524c0.437,0.254,0.863,0.506,1.298,0.748c0.041,0.021,0.147-0.02,0.189-0.062
			c0.282-0.28,0.572-0.554,0.822-0.86c0.214-0.259,0.423-0.363,0.754-0.222c0.145,0.062,0.236,0.11,0.271,0.276
			c0.104,0.471,0.223,0.938,0.344,1.406c0.014,0.055,0.079,0.135,0.121,0.137c0.496,0.009,0.993,0.005,1.502,0.005
			c0.105-0.433,0.24-0.846,0.303-1.271c0.057-0.373,0.208-0.577,0.592-0.62c0.126-0.015,0.209-0.015,0.301,0.084
			c0.264,0.287,0.539,0.563,0.808,0.845c0.323,0.336,0.321,0.336,0.725,0.104c0.327-0.19,0.655-0.381,0.981-0.572
			c-0.133-0.454-0.236-0.891-0.392-1.307c-0.112-0.307-0.079-0.519,0.187-0.723c0.122-0.096,0.207-0.135,0.357-0.089
			c0.454,0.143,0.911,0.275,1.371,0.399c0.058,0.017,0.17,0,0.193-0.04c0.258-0.423,0.502-0.854,0.707-1.211
			c-0.294-0.328-0.535-0.662-0.841-0.92c-0.312-0.263-0.434-0.511-0.257-0.897c0.057-0.12,0.102-0.186,0.227-0.215
			c0.459-0.105,0.91-0.222,1.367-0.328c0.123-0.029,0.178-0.082,0.177-0.218C55.239,45.667,55.239,45.249,55.246,44.829z
			 M47.647,49.027c-1.952,0.001-3.556-1.596-3.559-3.551c-0.003-1.97,1.592-3.573,3.554-3.578c1.968-0.003,3.566,1.595,3.566,3.565
			C51.207,47.437,49.623,49.023,47.647,49.027z"/>
		<polygon fill="none" stroke="#E52200" stroke-width="1.5" points="27.376,44.062 38.947,36.612 38.947,40.154 30.197,45.465 
			30.197,45.532 38.947,50.843 38.947,54.385 27.376,46.935 		"/>
		<polygon fill="none" stroke="#E52200" stroke-width="1.5" points="67.957,46.935 56.386,54.385 56.386,50.843 65.136,45.532 
			65.136,45.465 56.386,40.154 56.386,36.612 67.957,44.062 		"/>
	</g>
</g>
</svg>
