<?xml version="1.0" encoding="utf-8"?>
<!-- Generator: Adobe Illustrator 16.0.0, SVG Export Plug-In . SVG Version: 6.00 Build 0)  -->
<!DOCTYPE svg PUBLIC "-//W3C//DTD SVG 1.1//EN" "http://www.w3.org/Graphics/SVG/1.1/DTD/svg11.dtd">
<svg version="1.1" id="Layer_1" xmlns="http://www.w3.org/2000/svg" xmlns:xlink="http://www.w3.org/1999/xlink" x="0px" y="0px"
	 width="95.667px" height="95.667px" viewBox="0 0 95.667 95.667" enable-background="new 0 0 95.667 95.667" xml:space="preserve">
<circle fill="#FFFFFF" cx="47.667" cy="48.791" r="42.213"/>
<g>
	<path fill-rule="evenodd" clip-rule="evenodd" fill="none" stroke="#E52200" stroke-width="1.5" stroke-miterlimit="10" d="
		M29.262,34.172c0,0.874,0,1.659,0,2.491c-0.819,0-1.737,0-2.705,0c-0.013,0.188-0.032,0.335-0.032,0.483
		c-0.001,8.593,0.002,17.186-0.009,25.778c-0.001,0.413,0.089,0.549,0.529,0.548c11.317-0.015,22.634-0.014,33.949-0.015
		c2.43,0,4.859-0.004,7.287,0.013c0.4,0.002,0.553-0.073,0.553-0.526c-0.016-8.593-0.012-17.186-0.01-25.779
		c0-0.138,0-0.276,0-0.469c-4.395,0-8.752,0-13.016,0c0-0.854,0-1.654,0-2.496c0.121-0.009,0.24-0.025,0.359-0.025
		c4.141-0.002,8.283-0.005,12.426-0.001c1.723,0.001,2.732,1.028,2.732,2.77c0.002,8.621,0.002,17.242,0.002,25.863
		c0,0.656,0.002,0.656,0.666,0.656c0.268,0.001,0.535-0.012,0.801,0.004c0.83,0.049,1.414,0.646,1.422,1.476
		c0.012,1.151,0.01,2.302,0.004,3.454c-0.006,0.968-0.611,1.561-1.594,1.562c-4.338,0.002-8.676,0.001-13.016,0.001
		c-12.228,0-24.458-0.009-36.686,0.015c-1.105,0.002-1.883-0.637-1.813-1.837c0.063-1.035,0.008-2.077,0.015-3.116
		c0.006-0.948,0.603-1.542,1.556-1.559c0.295-0.006,0.592-0.018,0.885,0.006c0.347,0.028,0.459-0.099,0.457-0.452
		c-0.014-2.302-0.008-4.605-0.007-6.908c0.001-6.402-0.001-12.805,0.005-19.208c0.002-1.708,1.027-2.721,2.732-2.728
		C27.593,34.169,28.431,34.172,29.262,34.172z M47.673,67.77c1.812,0,3.621,0,5.432,0c0.492,0,0.984,0.013,1.475-0.01
		c0.563-0.025,0.977-0.458,0.997-1c0.021-0.571-0.367-1.034-0.938-1.104c-0.152-0.019-0.309-0.013-0.463-0.013
		c-2.99,0-5.979-0.001-8.969-0.001c-1.431,0-2.863-0.004-4.294,0.003c-0.624,0.003-1.058,0.364-1.132,0.909
		c-0.095,0.704,0.375,1.212,1.156,1.214C43.183,67.775,45.429,67.771,47.673,67.77z"/>
	<path fill-rule="evenodd" clip-rule="evenodd" fill="none" stroke="#E52200" stroke-width="1.5" stroke-miterlimit="10" d="
		M47.554,45.781c-0.603,0.795-1.585,0.695-1.96-0.172c-0.078-0.18-0.145-0.368-0.243-0.536c-0.216-0.363-0.596-0.51-1.018-0.396
		c-0.395,0.106-0.622,0.373-0.662,0.777c-0.024,0.251,0.005,0.507-0.025,0.757c-0.073,0.614-0.521,0.916-1.263,0.871
		c-0.579-0.035-0.925-0.388-0.944-0.97c-0.006-0.168,0.001-0.337-0.006-0.505c-0.021-0.514-0.288-0.852-0.738-0.94
		c-0.483-0.095-0.85,0.111-1.07,0.605c-0.08,0.179-0.143,0.368-0.235,0.54c-0.263,0.484-0.741,0.624-1.302,0.392
		c-0.632-0.26-0.887-0.686-0.723-1.233c0.06-0.201,0.155-0.391,0.227-0.589c0.175-0.489,0.056-0.891-0.335-1.146
		c-0.388-0.252-0.806-0.199-1.187,0.154c-0.145,0.134-0.273,0.284-0.426,0.408c-0.455,0.375-0.927,0.313-1.411-0.173
		c-0.462-0.463-0.516-0.933-0.146-1.38c0.143-0.173,0.314-0.321,0.463-0.49c0.301-0.342,0.338-0.766,0.105-1.125
		c-0.234-0.366-0.668-0.507-1.109-0.354c-0.199,0.069-0.389,0.162-0.588,0.229c-0.564,0.191-0.989-0.037-1.254-0.662
		c-0.262-0.617-0.129-1.099,0.389-1.367c0.173-0.09,0.361-0.152,0.539-0.235c0.452-0.211,0.682-0.61,0.605-1.041
		c-0.079-0.439-0.43-0.718-0.943-0.743c-0.209-0.01-0.422,0.009-0.631-0.012c-0.58-0.058-0.862-0.458-0.85-1.184
		c0.012-0.606,0.336-0.986,0.887-1.023c0.209-0.014,0.421,0.004,0.631-0.009c0.471-0.029,0.822-0.323,0.903-0.742
		c0.083-0.43-0.128-0.824-0.552-1.029c-0.089-0.042-0.182-0.074-0.273-0.11c-0.859-0.344-1.057-0.875-0.627-1.69
		c0.252-0.477,0.699-0.653,1.207-0.47c0.198,0.071,0.387,0.171,0.586,0.233c0.428,0.133,0.85-0.018,1.074-0.367
		c0.234-0.365,0.204-0.773-0.098-1.127c-0.146-0.17-0.318-0.318-0.463-0.489c-0.371-0.438-0.317-0.923,0.142-1.38
		c0.498-0.496,0.959-0.557,1.408-0.176c0.171,0.145,0.318,0.317,0.487,0.464c0.359,0.313,0.789,0.338,1.16,0.079
		c0.349-0.244,0.471-0.645,0.322-1.083c-0.053-0.16-0.127-0.312-0.188-0.469c-0.244-0.628-0.048-1.085,0.583-1.355
		c0.706-0.302,1.155-0.149,1.455,0.497c0.071,0.153,0.129,0.312,0.202,0.463c0.208,0.438,0.58,0.637,1.021,0.551
		c0.41-0.079,0.703-0.409,0.743-0.859c0.019-0.209,0.003-0.421,0.011-0.631c0.025-0.549,0.391-0.908,0.939-0.929
		c0.783-0.031,1.201,0.246,1.268,0.855c0.025,0.237,0.012,0.478,0.027,0.715c0.031,0.441,0.291,0.752,0.695,0.84
		c0.408,0.089,0.785-0.073,0.997-0.451c0.116-0.208,0.197-0.434,0.302-0.647c0.266-0.537,0.723-0.683,1.35-0.437
		c0.627,0.248,0.864,0.665,0.689,1.238c-0.074,0.241-0.182,0.472-0.255,0.713c-0.117,0.386,0.024,0.787,0.353,0.998
		c0.352,0.226,0.717,0.25,1.059-0.016c0.197-0.154,0.365-0.349,0.557-0.514c0.453-0.394,0.924-0.348,1.412,0.13
		c0.482,0.473,0.543,0.958,0.166,1.412c-0.135,0.162-0.299,0.298-0.439,0.454c-0.318,0.35-0.361,0.792-0.121,1.158
		c0.24,0.368,0.662,0.505,1.113,0.35c0.199-0.068,0.385-0.171,0.584-0.237c0.535-0.176,0.969,0.043,1.215,0.602
		c0.291,0.655,0.184,1.139-0.334,1.423c-0.195,0.108-0.416,0.169-0.617,0.265c-0.432,0.204-0.625,0.585-0.535,1.032
		c0.084,0.426,0.396,0.697,0.855,0.732c0.182,0.013,0.365,0.005,0.549,0.009c0.68,0.017,1.01,0.378,1.016,1.114
		c0.006,0.688-0.34,1.075-0.99,1.105c-0.195,0.009-0.395-0.006-0.59,0.01c-0.457,0.036-0.768,0.315-0.842,0.743
		c-0.078,0.437,0.105,0.805,0.514,1.004c0.201,0.099,0.418,0.164,0.619,0.264c0.51,0.257,0.643,0.748,0.383,1.373
		c-0.246,0.593-0.695,0.861-1.213,0.663c-0.291-0.112-0.582-0.284-0.811-0.496c-0.576-0.534-1.105-1.116-1.674-1.659
		c-0.215-0.206-0.245-0.384-0.15-0.665c1.361-4.057-0.972-8.377-5.109-9.481c-3.8-1.014-7.78,1.196-8.932,4.96
		c-1.156,3.781,0.883,7.817,4.596,9.122c1.236,0.435,2.492,0.527,3.773,0.296c0.318-0.058,0.545-0.01,0.781,0.235
		c0.867,0.899,1.76,1.774,2.643,2.659C47.375,45.58,47.464,45.685,47.554,45.781z"/>
	<path fill-rule="evenodd" clip-rule="evenodd" fill="none" stroke="#E52200" stroke-width="1.5" stroke-miterlimit="10" d="
		M63.988,51.908c-0.445-2.835-3.34-4.627-6.137-3.794c-0.225,0.066-0.398,0.107-0.604-0.097c-3.346-3.361-6.702-6.716-10.059-10.068
		c-0.171-0.17-0.204-0.32-0.132-0.556c0.945-3.07-1.179-6.092-4.392-6.238c-0.756-0.034-1.502,0.07-2.209,0.49
		c0.127,0.136,0.219,0.238,0.316,0.337c0.963,0.965,1.929,1.922,2.883,2.893c0.441,0.447,0.476,0.814,0.08,1.302
		c-0.287,0.358-0.619,0.691-0.975,0.981c-0.512,0.42-0.896,0.371-1.365-0.1c-0.756-0.754-1.516-1.502-2.258-2.268
		c-0.291-0.299-0.543-0.638-0.818-0.965c-0.17,0.156-0.195,0.171-0.21,0.194c-0.021,0.036-0.034,0.077-0.05,0.116
		c-0.69,1.834-0.42,3.529,0.874,4.985c1.314,1.478,2.999,1.898,4.901,1.397c0.33-0.087,0.529-0.035,0.769,0.204
		c3.298,3.313,6.604,6.617,9.915,9.915c0.209,0.208,0.25,0.386,0.158,0.667c-0.287,0.861-0.293,1.743-0.055,2.613
		c0.676,2.476,3.131,4,5.575,3.477C62.757,56.846,64.392,54.477,63.988,51.908z M59.195,56.137c-1.9,0-3.441-1.54-3.441-3.44
		c0-1.9,1.541-3.44,3.441-3.44c1.898,0,3.439,1.54,3.439,3.44C62.634,54.597,61.093,56.137,59.195,56.137z"/>
</g>
</svg>
