<?xml version="1.0" encoding="utf-8"?>
<!-- Generator: Adobe Illustrator 16.0.0, SVG Export Plug-In . SVG Version: 6.00 Build 0)  -->
<!DOCTYPE svg PUBLIC "-//W3C//DTD SVG 1.1//EN" "http://www.w3.org/Graphics/SVG/1.1/DTD/svg11.dtd">
<svg version="1.1" id="Layer_1" xmlns="http://www.w3.org/2000/svg" xmlns:xlink="http://www.w3.org/1999/xlink" x="0px" y="0px"
	 width="95.666px" height="95.667px" viewBox="0 0 95.666 95.667" enable-background="new 0 0 95.666 95.667" xml:space="preserve">
<circle fill="#FFFFFF" cx="48.334" cy="48.791" r="42.213"/>
<g>
	<path fill-rule="evenodd" clip-rule="evenodd" fill="none" stroke="#E52200" stroke-width="1.5" stroke-miterlimit="10" d="
		M64.584,38.846c0,0.257,0,0.487,0,0.717c0,8.188-0.023,16.376,0.018,24.564c0.01,1.804-1.123,3.046-2.92,2.933
		c-1.279-0.082-2.57-0.011-3.855-0.006c-0.041,0-0.082,0.024-0.227,0.069c0,0.213,0,0.46,0,0.708
		c-0.002,2.679,0.02,5.359-0.014,8.038c-0.02,1.636-1.111,2.98-2.654,3.391c-1.57,0.419-3.25-0.204-4.041-1.633
		c-0.316-0.572-0.496-1.291-0.512-1.947c-0.057-2.614-0.023-5.229-0.023-7.845c0-0.232,0-0.464,0-0.744c-1.775,0-3.502,0-5.313,0
		c-0.012,0.233-0.031,0.48-0.031,0.728c-0.004,2.637,0.025,5.273-0.012,7.909c-0.037,2.533-2.307,4.209-4.678,3.508
		c-1.498-0.443-2.547-1.845-2.557-3.48c-0.016-2.636-0.004-5.273-0.004-7.909c0-0.234,0-0.469,0-0.803c-0.264,0-0.49,0-0.715,0
		c-1.287-0.001-2.572,0.017-3.859-0.007c-1.314-0.024-2.303-0.994-2.393-2.302c-0.012-0.192-0.012-0.385-0.012-0.578
		c0-8.188,0-16.376,0-24.564c0-0.23,0-0.461,0-0.745C42.064,38.846,53.285,38.846,64.584,38.846z"/>
	<path fill-rule="evenodd" clip-rule="evenodd" fill="none" stroke="#E52200" stroke-width="1.5" stroke-miterlimit="10" d="
		M30.598,37.126c0.824-5.793,3.748-10.138,8.732-13.148c-0.762-1.486-1.512-2.951-2.262-4.415c-0.068-0.133-0.137-0.266-0.207-0.398
		c-0.197-0.375-0.195-0.719,0.232-0.916c0.416-0.191,0.633,0.093,0.801,0.417c0.766,1.482,1.529,2.966,2.295,4.448
		c0.049,0.094,0.104,0.185,0.186,0.329c4.795-2.121,9.609-2.154,14.475-0.059c0.871-1.506,1.734-3.003,2.602-4.5
		c0.107-0.185,0.188-0.427,0.352-0.528c0.186-0.116,0.51-0.207,0.668-0.118c0.16,0.091,0.256,0.413,0.258,0.633
		c0,0.19-0.166,0.385-0.273,0.569c-0.852,1.479-1.705,2.956-2.582,4.473c2.855,1.616,5.096,3.802,6.705,6.619
		c1.162,2.033,1.875,4.213,2.158,6.593C53.379,37.126,42.043,37.126,30.598,37.126z M41.379,29.742
		c0.01-0.762-0.6-1.405-1.359-1.434c-0.779-0.03-1.451,0.611-1.461,1.396c-0.01,0.762,0.6,1.402,1.361,1.428
		C40.713,31.16,41.367,30.538,41.379,29.742z M56.816,29.75c0.016-0.786-0.615-1.438-1.395-1.443
		c-0.744-0.005-1.396,0.615-1.43,1.356c-0.033,0.776,0.592,1.444,1.373,1.47C56.15,31.158,56.803,30.537,56.816,29.75z"/>
	<path fill-rule="evenodd" clip-rule="evenodd" fill="none" stroke="#E52200" stroke-width="1.5" stroke-miterlimit="10" d="
		M73.389,49.636c-0.002,2.656,0.023,5.312-0.012,7.967c-0.02,1.528-0.764,2.676-2.164,3.294c-1.369,0.604-2.688,0.393-3.84-0.581
		c-0.852-0.721-1.246-1.677-1.248-2.781c-0.008-5.29-0.027-10.579,0.008-15.869c0.014-2.11,1.654-3.634,3.719-3.593
		c2.002,0.039,3.529,1.639,3.535,3.725C73.395,44.411,73.389,47.024,73.389,49.636z"/>
	<path fill-rule="evenodd" clip-rule="evenodd" fill="none" stroke="#E52200" stroke-width="1.5" stroke-miterlimit="10" d="
		M29.211,49.609c0,2.634,0.021,5.268-0.008,7.902c-0.027,2.457-2.104,4.114-4.455,3.601c-1.566-0.341-2.779-1.76-2.787-3.421
		c-0.027-5.375-0.035-10.75,0.002-16.124c0.014-1.99,1.66-3.509,3.623-3.495c2.01,0.015,3.578,1.519,3.611,3.572
		c0.041,2.655,0.01,5.311,0.01,7.966C29.209,49.609,29.209,49.609,29.211,49.609z"/>
</g>
</svg>
