<?xml version="1.0" encoding="utf-8"?>
<!-- Generator: Adobe Illustrator 16.0.0, SVG Export Plug-In . SVG Version: 6.00 Build 0)  -->
<!DOCTYPE svg PUBLIC "-//W3C//DTD SVG 1.1//EN" "http://www.w3.org/Graphics/SVG/1.1/DTD/svg11.dtd">
<svg version="1.1" id="Layer_1" xmlns="http://www.w3.org/2000/svg" xmlns:xlink="http://www.w3.org/1999/xlink" x="0px" y="0px"
	 width="95.666px" height="95.667px" viewBox="0 0 95.666 95.667" enable-background="new 0 0 95.666 95.667" xml:space="preserve">
<circle fill="#FFFFFF" cx="48" cy="48.791" r="42.213"/>
<g>
	<path fill-rule="evenodd" clip-rule="evenodd" fill="none" stroke="#E52200" stroke-width="1.5" stroke-miterlimit="10" d="
		M24.265,53.45c0-1.046,0-2.097,0-3.144c0.019-0.212,0.033-0.424,0.053-0.634c0.119-1.275,0.186-2.555,0.367-3.82
		c0.285-1.949,0.938-3.774,2.092-5.396c1.068-1.489,2.436-2.652,3.951-3.655c1.367-0.909,2.783-1.721,4.408-2.107
		c3.036-0.72,6-0.462,8.898,0.667c0.986,0.384,1.968,0.768,2.95,1.159c0.639,0.252,1.282,0.255,1.929,0.019
		c0.682-0.25,1.373-0.479,2.035-0.765c3.581-1.537,7.289-1.999,11.131-1.356c1.218,0.203,2.43,0.507,3.434,1.258
		c1.041,0.777,2.037,1.618,3.008,2.474c0.501,0.447,0.922,0.991,1.389,1.506c-0.115,0.064-0.173,0.1-0.229,0.131
		c-1.388,0.708-2.555,1.685-3.513,2.909c-3.064,3.93-3.536,9.67-1.145,14.075c1.358,2.497,3.304,4.327,6.045,5.237
		c0,0.018,0,0.037,0,0.055c-0.039,0.08-0.078,0.156-0.111,0.234c-0.522,1.186-0.986,2.404-1.582,3.552
		c-2.32,4.469-5.533,8.145-9.788,10.881c-0.61,0.391-1.274,0.572-1.982,0.584c-1.606,0.027-3.094-0.377-4.457-1.258
		c-2.583-1.666-5.243-1.752-7.97-0.336c-0.738,0.385-1.477,0.779-2.244,1.09c-2.149,0.852-4.246,0.553-6.285-0.387
		c-1.021-0.473-1.854-1.227-2.707-1.945c-3.07-2.596-5.453-5.713-7.098-9.384c-1.443-3.223-2.206-6.606-2.463-10.115
		C24.341,54.469,24.303,53.959,24.265,53.45z"/>
	<path fill-rule="evenodd" clip-rule="evenodd" fill="none" stroke="#E52200" stroke-width="1.5" stroke-miterlimit="10" d="
		M59.365,20.267c-0.074,0.996-0.108,1.995-0.242,2.981c-0.189,1.384-0.576,2.724-1.143,4.008c-0.787,1.787-2.107,3.117-3.613,4.292
		c-0.601,0.472-1.244,0.889-1.873,1.322c-1.402,0.968-2.988,1.395-4.652,1.602c-0.609,0.079-1.224,0.138-1.891,0.214
		c0.071-0.467,0.123-0.874,0.205-1.277c0.214-1.113,0.391-2.235,0.672-3.33c0.424-1.646,1.301-3.081,2.269-4.456
		c1.953-2.779,4.65-4.413,7.944-5.087c0.635-0.128,1.291-0.136,1.936-0.205c0.09-0.01,0.182-0.041,0.275-0.064
		C59.291,20.267,59.328,20.267,59.365,20.267z"/>
</g>
</svg>
