<?xml version="1.0" encoding="utf-8"?>
<!-- Generator: Adobe Illustrator 16.0.0, SVG Export Plug-In . SVG Version: 6.00 Build 0)  -->
<!DOCTYPE svg PUBLIC "-//W3C//DTD SVG 1.1//EN" "http://www.w3.org/Graphics/SVG/1.1/DTD/svg11.dtd">
<svg version="1.1" id="Layer_1" xmlns="http://www.w3.org/2000/svg" xmlns:xlink="http://www.w3.org/1999/xlink" x="0px" y="0px"
	 width="95.666px" height="95.667px" viewBox="0 0 95.666 95.667" enable-background="new 0 0 95.666 95.667" xml:space="preserve">
<circle fill="#FFFFFF" cx="48.001" cy="48.791" r="42.213"/>
<g>
	<path fill-rule="evenodd" clip-rule="evenodd" fill="none" stroke="#E52200" stroke-width="1.5" stroke-miterlimit="10" d="
		M54.673,35.124c-0.681,0-1.318,0-2.004,0c0-2.741,0-5.468,0-8.232c-8.259,0-16.469,0-24.711,0c0,14.697,0,29.38,0,44.104
		c0.167,0,0.312,0,0.457,0c3.85,0,7.699,0,11.549,0.002c4.07,0,8.141,0,12.211-0.002c0.485,0,0.486-0.002,0.486-0.477
		c0.001-0.492,0-0.982,0-1.5c0.677,0,1.325,0,2.014,0c0,0.133,0,0.252,0,0.373c-0.001,1.322,0.001,2.648-0.002,3.973
		c-0.004,2.463-1.91,4.381-4.376,4.383c-6.658,0.006-13.316,0.006-19.974,0c-2.499-0.002-4.393-1.9-4.395-4.393
		c-0.004-5.459-0.002-10.916-0.002-16.375c-0.001-4.802-0.003-9.604,0-14.407c0.003-4.554,0.013-9.108,0.016-13.662
		c0.001-1.56-0.013-3.119-0.017-4.678c-0.007-2.483,1.9-4.405,4.386-4.404c4.418,0.001,8.836,0.016,13.254,0.019
		c2.227,0.001,4.453-0.018,6.68-0.019c2.53-0.001,4.43,1.91,4.429,4.442c-0.001,3.454-0.001,6.907-0.001,10.361
		C54.673,34.781,54.673,34.928,54.673,35.124z M42.504,74.178c-0.003-1.197-0.991-2.197-2.184-2.207
		c-1.221-0.01-2.221,0.98-2.226,2.201c-0.005,1.232,0.974,2.223,2.198,2.227C41.506,76.403,42.506,75.399,42.504,74.178z"/>
	<path fill-rule="evenodd" clip-rule="evenodd" fill="none" stroke="#E52200" stroke-miterlimit="10" d="M51.875,40.516
		c3.972,0,7.945-0.002,11.919,0.005c0.297,0.001,0.449-0.068,0.561-0.374c0.33-0.905,0.713-1.79,1.063-2.688
		c0.166-0.428,0.463-0.606,0.912-0.605c2.736,0.006,5.471,0.004,8.207,0.006c0.547,0.001,0.869,0.281,0.871,0.743
		c0,0.463-0.273,0.724-0.791,0.727c-1.115,0.005-2.229,0.001-3.342,0.001c-1.424,0-2.848,0.006-4.27-0.005
		c-0.248-0.002-0.367,0.065-0.461,0.306c-1.158,2.956-2.33,5.908-3.502,8.858c-0.691,1.746-1.396,3.486-2.082,5.234
		c-0.063,0.156-0.07,0.366-0.021,0.525c0.26,0.85,0.553,1.689,0.822,2.537c0.383,1.214-0.223,2.37-1.406,2.681
		c-0.176,0.045-0.365,0.057-0.549,0.057c-6.647,0.002-13.293,0.002-19.94,0.004c-0.33,0-0.62-0.061-0.777-0.385
		c-0.135-0.278-0.138-0.573,0.082-0.796c0.136-0.139,0.342-0.226,0.533-0.289c0.134-0.044,0.294-0.012,0.442-0.012
		c6.485,0,12.972,0,19.457,0c0.738,0,0.93-0.269,0.693-0.979c-0.225-0.68-0.457-1.357-0.664-2.043
		c-0.078-0.263-0.213-0.332-0.475-0.331c-2.537,0.009-5.076,0.005-7.613,0.005c-2.301,0-4.601-0.008-6.901,0.006
		c-0.483,0.003-0.779-0.155-0.961-0.624c-0.723-1.864-1.472-3.717-2.209-5.576c-0.651-1.643-1.3-3.287-1.95-4.93
		c-0.127-0.32-0.267-0.635-0.385-0.958c-0.24-0.654,0.081-1.102,0.779-1.102C43.903,40.516,47.889,40.516,51.875,40.516z
		 M57.571,42.02c-1.545,0-3.046,0-4.582,0c0,0.914-0.006,1.801,0.01,2.688c0.002,0.071,0.145,0.2,0.223,0.201
		c1.187,0.014,2.375,0.014,3.562,0.005c0.082,0,0.221-0.089,0.236-0.159C57.212,43.854,57.388,42.95,57.571,42.02z M46.93,42.014
		c0.174,0.892,0.354,1.757,0.506,2.627c0.043,0.248,0.162,0.285,0.375,0.283c0.654-0.005,1.309,0.007,1.964,0.009
		c0.563,0.002,1.128,0,1.717,0c0-1.012,0-1.957,0-2.92C49.97,42.014,48.469,42.014,46.93,42.014z M45.992,44.922
		c-0.189-0.955-0.359-1.849-0.557-2.737c-0.019-0.083-0.211-0.18-0.323-0.181c-1.298-0.013-2.596-0.009-3.894-0.007
		c-0.091,0-0.182,0.023-0.278,0.037c0.008,0.067,0.004,0.106,0.017,0.139c0.326,0.852,0.646,1.706,0.992,2.55
		c0.039,0.096,0.219,0.188,0.335,0.19c1.038,0.015,2.076,0.009,3.115,0.009C45.58,44.922,45.76,44.922,45.992,44.922z
		 M63.614,41.996c-1.477,0-2.887-0.004-4.297,0.011c-0.094,0.001-0.246,0.146-0.27,0.247c-0.184,0.807-0.342,1.62-0.502,2.432
		c-0.014,0.065,0.008,0.137,0.016,0.235c1.258,0,2.492,0.003,3.729-0.008c0.082,0,0.205-0.096,0.238-0.176
		C62.892,43.845,63.239,42.95,63.614,41.996z M53.011,46.417c0,0.743,0,1.464,0,2.226c1.047,0,2.07,0.003,3.091-0.008
		c0.066,0,0.176-0.099,0.191-0.167c0.139-0.673,0.264-1.349,0.396-2.051C55.446,46.417,54.242,46.417,53.011,46.417z M51.487,46.408
		c-1.242,0-2.436,0-3.691,0c0.154,0.765,0.303,1.493,0.447,2.205c1.109,0,2.177,0,3.244,0
		C51.487,47.869,51.487,47.156,51.487,46.408z M42.634,46.406c0.285,0.719,0.545,1.397,0.83,2.064
		c0.037,0.086,0.2,0.164,0.308,0.167c0.557,0.017,1.113,0.008,1.67,0.008c0.42,0,0.841,0,1.294,0
		c-0.158-0.78-0.306-1.502-0.455-2.239C45.073,46.406,43.89,46.406,42.634,46.406z M57.769,48.645c0.719,0,1.396,0.002,2.072-0.001
		c0.369-0.002,0.834,0.121,1.084-0.056c0.266-0.187,0.33-0.661,0.475-1.013c0.154-0.373,0.299-0.749,0.469-1.179
		c-1.205,0-2.34-0.003-3.475,0.007c-0.068,0.001-0.18,0.096-0.193,0.164C58.05,47.24,57.917,47.917,57.769,48.645z M53.007,52.191
		c0.878,0,1.711,0,2.542,0c0.141-0.696,0.275-1.365,0.412-2.04c-1.018,0-1.984,0-2.955,0C53.007,50.845,53.007,51.506,53.007,52.191
		z M48.55,50.14c0.122,0.653,0.234,1.282,0.363,1.906c0.014,0.067,0.126,0.163,0.193,0.164c0.786,0.012,1.573,0.007,2.379,0.007
		c0-0.713,0-1.385,0-2.077C50.505,50.14,49.547,50.14,48.55,50.14z M44.11,50.125c0.268,0.677,0.513,1.318,0.782,1.949
		c0.032,0.076,0.192,0.137,0.295,0.139c0.666,0.012,1.332,0.007,1.999,0.003c0.074,0,0.148-0.033,0.24-0.055
		c-0.138-0.694-0.27-1.355-0.404-2.036C46.042,50.125,45.097,50.125,44.11,50.125z M60.394,50.121c-0.961,0-1.857-0.004-2.756,0.009
		c-0.068,0.001-0.182,0.118-0.199,0.197c-0.131,0.613-0.242,1.23-0.369,1.891c0.791,0,1.566,0.003,2.34-0.005
		c0.068-0.001,0.172-0.065,0.195-0.125C59.868,51.453,60.118,50.813,60.394,50.121z"/>
	<path fill-rule="evenodd" clip-rule="evenodd" fill="none" stroke="#E52200" stroke-width="1.5" stroke-miterlimit="10" d="
		M39.662,63.286c0.002-2.203,1.752-3.95,3.955-3.949c2.194,0.001,3.952,1.767,3.947,3.964c-0.005,2.178-1.759,3.923-3.943,3.925
		C41.408,67.231,39.66,65.491,39.662,63.286z M41.142,63.263c-0.009,1.381,1.074,2.478,2.452,2.488
		c1.371,0.008,2.461-1.06,2.478-2.425c0.016-1.391-1.061-2.502-2.433-2.512C42.259,60.806,41.151,61.892,41.142,63.263z"/>
	<path fill-rule="evenodd" clip-rule="evenodd" fill="none" stroke="#E52200" stroke-width="1.5" stroke-miterlimit="10" d="
		M57.673,67.237c-2.133,0.008-3.945-1.775-3.953-3.892c-0.009-2.221,1.748-4.003,3.949-4.007c2.182-0.003,3.975,1.777,3.977,3.949
		C61.649,65.46,59.87,67.229,57.673,67.237z M57.624,65.75c1.32,0.057,2.482-1.025,2.543-2.371c0.061-1.324-1.016-2.504-2.344-2.564
		c-1.389-0.063-2.547,0.986-2.619,2.371C55.134,64.536,56.224,65.69,57.624,65.75z"/>
	<path fill-rule="evenodd" clip-rule="evenodd" fill="none" stroke="#E52200" stroke-width="1.5" stroke-miterlimit="10" d="
		M42.051,74.194c-0.001,0.986-0.791,1.77-1.771,1.758c-0.967-0.014-1.737-0.789-1.745-1.758c-0.008-0.975,0.787-1.773,1.763-1.775
		C41.28,72.418,42.053,73.2,42.051,74.194z"/>
</g>
</svg>
