<?xml version="1.0" encoding="utf-8"?>
<!-- Generator: Adobe Illustrator 16.0.0, SVG Export Plug-In . SVG Version: 6.00 Build 0)  -->
<!DOCTYPE svg PUBLIC "-//W3C//DTD SVG 1.1//EN" "http://www.w3.org/Graphics/SVG/1.1/DTD/svg11.dtd">
<svg version="1.1" id="Layer_1" xmlns="http://www.w3.org/2000/svg" xmlns:xlink="http://www.w3.org/1999/xlink" x="0px" y="0px"
	 width="95.666px" height="95.667px" viewBox="0 0 95.666 95.667" enable-background="new 0 0 95.666 95.667" xml:space="preserve">
<circle fill="#FFFFFF" cx="48.668" cy="48.791" r="42.213"/>
<g>
	<path fill-rule="evenodd" clip-rule="evenodd" fill="none" stroke="#E52200" stroke-width="1.5" stroke-miterlimit="10" d="
		M25.523,61.085c14.32,0,28.598,0,42.916,0c0-0.117,0-0.221,0-0.326c0.004-3.443,0.006-6.887,0.008-10.331
		c0.002-2.063,0.002-4.125,0.006-6.188c0.002-0.631,0.371-1.076,0.906-1.119c0.641-0.051,1.111,0.392,1.117,1.066
		c0.006,0.523-0.002,1.046-0.002,1.569c-0.004,1.992-0.012,3.983-0.016,5.975c-0.004,4.048,0.004,8.095-0.02,12.143
		c-0.01,1.962-0.922,3.423-2.625,4.38c-0.693,0.389-1.455,0.568-2.254,0.568c-4.139-0.002-8.277-0.002-12.414-0.002
		c-0.125,0-0.25,0-0.41,0c0.197,0.584,0.381,1.137,0.57,1.688c0.422,1.225,0.852,2.447,1.26,3.678
		c0.078,0.232,0.186,0.295,0.422,0.291c0.893-0.014,1.785-0.004,2.678-0.004c0.105,0,0.211,0,0.332,0c0,0.676,0,1.32,0,1.994
		c-7.332,0-14.646,0-21.984,0c0-0.646,0-1.297,0-1.982c0.086-0.004,0.182-0.012,0.275-0.012c0.939-0.004,1.875-0.004,2.813,0
		c0.148,0,0.244-0.02,0.303-0.189c0.594-1.754,1.199-3.506,1.801-5.26c0.02-0.057,0.025-0.119,0.045-0.201c-0.117,0-0.215,0-0.313,0
		c-4.166-0.002-8.33,0.002-12.496-0.002c-2.307-0.002-4.277-1.561-4.797-3.804c-0.088-0.375-0.131-0.766-0.133-1.15
		c-0.01-3.291-0.006-6.581-0.006-9.872c0-2.957,0-5.914,0-8.87c0-1.984,0-3.966,0-5.949c-0.004-2.721,2.164-4.942,4.885-4.958
		c2.496-0.015,4.992,0.013,7.488,0.027c0.578,0.003,1.027,0.454,1.02,1.004c-0.004,0.57-0.453,1.005-1.049,1.004
		c-2.424-0.005-4.85-0.011-7.275-0.024c-1.768-0.01-3.049,1.246-3.049,3.01c-0.002,2.632-0.002,5.264-0.002,7.896
		c0,4.553,0,9.104,0,13.657C25.523,60.88,25.523,60.97,25.523,61.085z M68.42,63.114c-14.295,0-28.576,0-42.895,0
		c0,0.264-0.002,0.514,0,0.762c0.018,1.668,1.289,2.931,2.959,2.937c0.531,0.004,1.064,0.002,1.596,0c6.74,0,13.48,0,20.221,0
		c5.066,0,10.133,0.004,15.199,0c0.949-0.002,1.723-0.389,2.318-1.129C68.42,64.935,68.492,64.06,68.42,63.114z M52.523,74.465
		c-0.027-0.104-0.039-0.166-0.059-0.227c-0.59-1.717-1.186-3.43-1.766-5.15c-0.074-0.227-0.189-0.271-0.406-0.271
		c-2.205,0.008-4.41,0.008-6.617,0c-0.203-0.002-0.293,0.057-0.359,0.254c-0.578,1.711-1.17,3.42-1.758,5.129
		c-0.027,0.08-0.043,0.162-0.07,0.266C45.182,74.465,48.836,74.465,52.523,74.465z"/>
	<path fill-rule="evenodd" clip-rule="evenodd" fill="none" stroke="#E52200" stroke-width="1.5" stroke-miterlimit="10" d="
		M58.521,40.85c-1.553,0.001-3.717,0.195-5.838,0.754c-0.564,0.148-1.004-0.037-1.266-0.549c-1.281-2.509-2.561-5.021-3.836-7.532
		c-0.244-0.48-0.141-0.972,0.254-1.292c1.785-1.458,3.293-3.167,4.598-5.06c1.131-1.64,2.023-3.4,2.703-5.272
		c0.146-0.405,0.426-0.681,0.865-0.708c0.451-0.027,0.793,0.178,1.004,0.594c0.941,1.855,1.891,3.706,2.826,5.563
		c0.104,0.205,0.232,0.282,0.447,0.312c2.215,0.304,4.002,2.348,4.029,4.583c0.01,0.863-0.17,1.675-0.572,2.443
		c-0.047,0.092-0.023,0.261,0.029,0.362c0.893,1.777,1.799,3.549,2.699,5.324c0.328,0.649-0.027,1.365-0.738,1.476
		c-0.152,0.024-0.326,0.003-0.477-0.043C63.262,41.197,61.225,40.922,58.521,40.85z M63.67,39.318
		c-2.498-4.907-4.975-9.773-7.475-14.684c-1.588,3.362-3.76,6.215-6.473,8.654c1.018,1.995,2.025,3.966,3.021,5.943
		c0.094,0.182,0.178,0.228,0.393,0.196c1.27-0.185,2.541-0.388,3.82-0.499c1.701-0.148,3.402-0.086,5.098,0.142
		C62.576,39.142,63.098,39.229,63.67,39.318z"/>
	<path fill-rule="evenodd" clip-rule="evenodd" fill="none" stroke="#E52200" stroke-width="1.5" stroke-miterlimit="10" d="
		M49.766,42.918c-1.652,0.842-3.271,1.666-4.922,2.506c-1.512-2.974-3.018-5.929-4.539-8.918c1.648-0.841,3.268-1.665,4.92-2.508
		C46.736,36.97,48.242,39.926,49.766,42.918z"/>
	<path fill-rule="evenodd" clip-rule="evenodd" fill="none" stroke="#E52200" stroke-width="1.5" stroke-miterlimit="10" d="
		M46.816,46.672c1.039-0.528,2.049-1.04,3.074-1.563c0.262,0.508,0.512,0.993,0.76,1.48c0.854,1.677,1.709,3.352,2.557,5.031
		c0.453,0.897,0.133,1.911-0.73,2.364c-0.838,0.438-1.875,0.107-2.33-0.77c-0.701-1.359-1.383-2.729-2.076-4.092
		c-0.352-0.689-0.707-1.375-1.061-2.063C46.949,46.941,46.891,46.821,46.816,46.672z"/>
	<path fill-rule="evenodd" clip-rule="evenodd" fill="none" stroke="#E52200" stroke-width="1.5" stroke-miterlimit="10" d="
		M38.771,37.7c1.42,2.788,2.83,5.554,4.238,8.32c-1.463,0.544-4.008,0.064-5.332-2.079C36.291,41.694,37.102,38.959,38.771,37.7z"/>
	<path fill-rule="evenodd" clip-rule="evenodd" fill="none" stroke="#E52200" stroke-width="1.5" stroke-miterlimit="10" d="
		M70.938,26.73c0,0.303-0.154,0.514-0.412,0.646c-1.393,0.712-2.787,1.422-4.184,2.126c-0.391,0.196-0.811,0.056-0.99-0.307
		c-0.188-0.376-0.057-0.775,0.34-0.978c1.393-0.713,2.785-1.426,4.184-2.128C70.395,25.827,70.945,26.169,70.938,26.73z"/>
	<path fill-rule="evenodd" clip-rule="evenodd" fill="none" stroke="#E52200" stroke-width="1.5" stroke-miterlimit="10" d="
		M71.826,33.797c-0.006,0.466-0.42,0.801-0.887,0.691c-1.391-0.329-2.779-0.667-4.166-1.009c-0.381-0.094-0.617-0.493-0.527-0.851
		c0.102-0.408,0.473-0.645,0.885-0.546c1.371,0.33,2.742,0.664,4.113,1.001C71.611,33.175,71.83,33.456,71.826,33.797z"/>
	<path fill-rule="evenodd" clip-rule="evenodd" fill="none" stroke="#E52200" stroke-width="1.5" stroke-miterlimit="10" d="
		M65.74,21.925c-0.012,0.041-0.035,0.155-0.078,0.262c-0.52,1.273-1.041,2.547-1.568,3.817c-0.236,0.572-0.883,0.692-1.256,0.241
		c-0.184-0.223-0.211-0.478-0.105-0.736c0.535-1.316,1.074-2.631,1.617-3.944c0.141-0.336,0.488-0.507,0.813-0.432
		C65.516,21.216,65.742,21.496,65.74,21.925z"/>
</g>
</svg>
